<svg xmlns="http://www.w3.org/2000/svg" viewBox="0 0 41 41" shape-rendering="crispEdges" role="img" aria-label="QR code vers https://petite-jerusalem.fr/horaires">
<rect width="41" height="41" fill="#ffffff"/>
<path d="M2 2h1v1h-1zM3 2h1v1h-1zM4 2h1v1h-1zM5 2h1v1h-1zM6 2h1v1h-1zM7 2h1v1h-1zM8 2h1v1h-1zM11 2h1v1h-1zM12 2h1v1h-1zM13 2h1v1h-1zM14 2h1v1h-1zM15 2h1v1h-1zM16 2h1v1h-1zM17 2h1v1h-1zM19 2h1v1h-1zM21 2h1v1h-1zM22 2h1v1h-1zM23 2h1v1h-1zM24 2h1v1h-1zM25 2h1v1h-1zM26 2h1v1h-1zM29 2h1v1h-1zM30 2h1v1h-1zM32 2h1v1h-1zM33 2h1v1h-1zM34 2h1v1h-1zM35 2h1v1h-1zM36 2h1v1h-1zM37 2h1v1h-1zM38 2h1v1h-1zM2 3h1v1h-1zM8 3h1v1h-1zM10 3h1v1h-1zM11 3h1v1h-1zM12 3h1v1h-1zM15 3h1v1h-1zM16 3h1v1h-1zM19 3h1v1h-1zM20 3h1v1h-1zM22 3h1v1h-1zM23 3h1v1h-1zM25 3h1v1h-1zM27 3h1v1h-1zM28 3h1v1h-1zM32 3h1v1h-1zM38 3h1v1h-1zM2 4h1v1h-1zM4 4h1v1h-1zM5 4h1v1h-1zM6 4h1v1h-1zM8 4h1v1h-1zM15 4h1v1h-1zM16 4h1v1h-1zM17 4h1v1h-1zM18 4h1v1h-1zM19 4h1v1h-1zM20 4h1v1h-1zM22 4h1v1h-1zM23 4h1v1h-1zM26 4h1v1h-1zM30 4h1v1h-1zM32 4h1v1h-1zM34 4h1v1h-1zM35 4h1v1h-1zM36 4h1v1h-1zM38 4h1v1h-1zM2 5h1v1h-1zM4 5h1v1h-1zM5 5h1v1h-1zM6 5h1v1h-1zM8 5h1v1h-1zM11 5h1v1h-1zM17 5h1v1h-1zM18 5h1v1h-1zM19 5h1v1h-1zM20 5h1v1h-1zM23 5h1v1h-1zM25 5h1v1h-1zM27 5h1v1h-1zM28 5h1v1h-1zM29 5h1v1h-1zM30 5h1v1h-1zM32 5h1v1h-1zM34 5h1v1h-1zM35 5h1v1h-1zM36 5h1v1h-1zM38 5h1v1h-1zM2 6h1v1h-1zM4 6h1v1h-1zM5 6h1v1h-1zM6 6h1v1h-1zM8 6h1v1h-1zM11 6h1v1h-1zM13 6h1v1h-1zM17 6h1v1h-1zM18 6h1v1h-1zM21 6h1v1h-1zM24 6h1v1h-1zM26 6h1v1h-1zM28 6h1v1h-1zM29 6h1v1h-1zM32 6h1v1h-1zM34 6h1v1h-1zM35 6h1v1h-1zM36 6h1v1h-1zM38 6h1v1h-1zM2 7h1v1h-1zM8 7h1v1h-1zM10 7h1v1h-1zM12 7h1v1h-1zM13 7h1v1h-1zM14 7h1v1h-1zM16 7h1v1h-1zM17 7h1v1h-1zM19 7h1v1h-1zM24 7h1v1h-1zM25 7h1v1h-1zM26 7h1v1h-1zM30 7h1v1h-1zM32 7h1v1h-1zM38 7h1v1h-1zM2 8h1v1h-1zM3 8h1v1h-1zM4 8h1v1h-1zM5 8h1v1h-1zM6 8h1v1h-1zM7 8h1v1h-1zM8 8h1v1h-1zM10 8h1v1h-1zM12 8h1v1h-1zM14 8h1v1h-1zM16 8h1v1h-1zM18 8h1v1h-1zM20 8h1v1h-1zM22 8h1v1h-1zM24 8h1v1h-1zM26 8h1v1h-1zM28 8h1v1h-1zM30 8h1v1h-1zM32 8h1v1h-1zM33 8h1v1h-1zM34 8h1v1h-1zM35 8h1v1h-1zM36 8h1v1h-1zM37 8h1v1h-1zM38 8h1v1h-1zM10 9h1v1h-1zM11 9h1v1h-1zM12 9h1v1h-1zM13 9h1v1h-1zM15 9h1v1h-1zM16 9h1v1h-1zM17 9h1v1h-1zM18 9h1v1h-1zM21 9h1v1h-1zM24 9h1v1h-1zM25 9h1v1h-1zM27 9h1v1h-1zM6 10h1v1h-1zM7 10h1v1h-1zM8 10h1v1h-1zM9 10h1v1h-1zM12 10h1v1h-1zM14 10h1v1h-1zM18 10h1v1h-1zM19 10h1v1h-1zM22 10h1v1h-1zM26 10h1v1h-1zM27 10h1v1h-1zM29 10h1v1h-1zM30 10h1v1h-1zM32 10h1v1h-1zM33 10h1v1h-1zM37 10h1v1h-1zM2 11h1v1h-1zM5 11h1v1h-1zM6 11h1v1h-1zM7 11h1v1h-1zM11 11h1v1h-1zM15 11h1v1h-1zM17 11h1v1h-1zM18 11h1v1h-1zM22 11h1v1h-1zM23 11h1v1h-1zM24 11h1v1h-1zM28 11h1v1h-1zM32 11h1v1h-1zM4 12h1v1h-1zM5 12h1v1h-1zM6 12h1v1h-1zM8 12h1v1h-1zM9 12h1v1h-1zM10 12h1v1h-1zM11 12h1v1h-1zM12 12h1v1h-1zM13 12h1v1h-1zM17 12h1v1h-1zM19 12h1v1h-1zM20 12h1v1h-1zM22 12h1v1h-1zM24 12h1v1h-1zM25 12h1v1h-1zM27 12h1v1h-1zM28 12h1v1h-1zM29 12h1v1h-1zM31 12h1v1h-1zM34 12h1v1h-1zM35 12h1v1h-1zM2 13h1v1h-1zM7 13h1v1h-1zM9 13h1v1h-1zM12 13h1v1h-1zM13 13h1v1h-1zM16 13h1v1h-1zM17 13h1v1h-1zM19 13h1v1h-1zM20 13h1v1h-1zM24 13h1v1h-1zM25 13h1v1h-1zM28 13h1v1h-1zM29 13h1v1h-1zM30 13h1v1h-1zM31 13h1v1h-1zM33 13h1v1h-1zM34 13h1v1h-1zM36 13h1v1h-1zM37 13h1v1h-1zM3 14h1v1h-1zM5 14h1v1h-1zM6 14h1v1h-1zM7 14h1v1h-1zM8 14h1v1h-1zM9 14h1v1h-1zM10 14h1v1h-1zM11 14h1v1h-1zM12 14h1v1h-1zM14 14h1v1h-1zM16 14h1v1h-1zM17 14h1v1h-1zM20 14h1v1h-1zM21 14h1v1h-1zM22 14h1v1h-1zM23 14h1v1h-1zM25 14h1v1h-1zM31 14h1v1h-1zM32 14h1v1h-1zM33 14h1v1h-1zM36 14h1v1h-1zM37 14h1v1h-1zM2 15h1v1h-1zM3 15h1v1h-1zM6 15h1v1h-1zM11 15h1v1h-1zM13 15h1v1h-1zM14 15h1v1h-1zM15 15h1v1h-1zM17 15h1v1h-1zM19 15h1v1h-1zM20 15h1v1h-1zM22 15h1v1h-1zM23 15h1v1h-1zM25 15h1v1h-1zM26 15h1v1h-1zM27 15h1v1h-1zM29 15h1v1h-1zM30 15h1v1h-1zM31 15h1v1h-1zM34 15h1v1h-1zM36 15h1v1h-1zM3 16h1v1h-1zM4 16h1v1h-1zM5 16h1v1h-1zM6 16h1v1h-1zM7 16h1v1h-1zM8 16h1v1h-1zM10 16h1v1h-1zM12 16h1v1h-1zM15 16h1v1h-1zM17 16h1v1h-1zM21 16h1v1h-1zM22 16h1v1h-1zM24 16h1v1h-1zM28 16h1v1h-1zM29 16h1v1h-1zM32 16h1v1h-1zM34 16h1v1h-1zM35 16h1v1h-1zM36 16h1v1h-1zM2 17h1v1h-1zM3 17h1v1h-1zM4 17h1v1h-1zM6 17h1v1h-1zM12 17h1v1h-1zM15 17h1v1h-1zM17 17h1v1h-1zM18 17h1v1h-1zM20 17h1v1h-1zM24 17h1v1h-1zM26 17h1v1h-1zM28 17h1v1h-1zM33 17h1v1h-1zM34 17h1v1h-1zM36 17h1v1h-1zM37 17h1v1h-1zM5 18h1v1h-1zM8 18h1v1h-1zM9 18h1v1h-1zM16 18h1v1h-1zM19 18h1v1h-1zM25 18h1v1h-1zM29 18h1v1h-1zM30 18h1v1h-1zM31 18h1v1h-1zM32 18h1v1h-1zM33 18h1v1h-1zM35 18h1v1h-1zM36 18h1v1h-1zM37 18h1v1h-1zM38 18h1v1h-1zM2 19h1v1h-1zM5 19h1v1h-1zM6 19h1v1h-1zM9 19h1v1h-1zM10 19h1v1h-1zM13 19h1v1h-1zM15 19h1v1h-1zM16 19h1v1h-1zM19 19h1v1h-1zM22 19h1v1h-1zM23 19h1v1h-1zM25 19h1v1h-1zM26 19h1v1h-1zM29 19h1v1h-1zM30 19h1v1h-1zM33 19h1v1h-1zM34 19h1v1h-1zM36 19h1v1h-1zM2 20h1v1h-1zM7 20h1v1h-1zM8 20h1v1h-1zM9 20h1v1h-1zM10 20h1v1h-1zM13 20h1v1h-1zM15 20h1v1h-1zM16 20h1v1h-1zM18 20h1v1h-1zM19 20h1v1h-1zM21 20h1v1h-1zM24 20h1v1h-1zM25 20h1v1h-1zM27 20h1v1h-1zM28 20h1v1h-1zM29 20h1v1h-1zM33 20h1v1h-1zM36 20h1v1h-1zM3 21h1v1h-1zM5 21h1v1h-1zM9 21h1v1h-1zM10 21h1v1h-1zM11 21h1v1h-1zM16 21h1v1h-1zM18 21h1v1h-1zM19 21h1v1h-1zM20 21h1v1h-1zM22 21h1v1h-1zM28 21h1v1h-1zM29 21h1v1h-1zM31 21h1v1h-1zM32 21h1v1h-1zM33 21h1v1h-1zM36 21h1v1h-1zM37 21h1v1h-1zM2 22h1v1h-1zM3 22h1v1h-1zM5 22h1v1h-1zM6 22h1v1h-1zM8 22h1v1h-1zM10 22h1v1h-1zM11 22h1v1h-1zM12 22h1v1h-1zM13 22h1v1h-1zM16 22h1v1h-1zM21 22h1v1h-1zM22 22h1v1h-1zM23 22h1v1h-1zM26 22h1v1h-1zM31 22h1v1h-1zM32 22h1v1h-1zM35 22h1v1h-1zM36 22h1v1h-1zM37 22h1v1h-1zM38 22h1v1h-1zM2 23h1v1h-1zM3 23h1v1h-1zM6 23h1v1h-1zM10 23h1v1h-1zM11 23h1v1h-1zM12 23h1v1h-1zM14 23h1v1h-1zM15 23h1v1h-1zM16 23h1v1h-1zM17 23h1v1h-1zM19 23h1v1h-1zM20 23h1v1h-1zM25 23h1v1h-1zM26 23h1v1h-1zM27 23h1v1h-1zM29 23h1v1h-1zM31 23h1v1h-1zM34 23h1v1h-1zM35 23h1v1h-1zM37 23h1v1h-1zM2 24h1v1h-1zM3 24h1v1h-1zM4 24h1v1h-1zM7 24h1v1h-1zM8 24h1v1h-1zM10 24h1v1h-1zM11 24h1v1h-1zM12 24h1v1h-1zM17 24h1v1h-1zM19 24h1v1h-1zM21 24h1v1h-1zM23 24h1v1h-1zM29 24h1v1h-1zM30 24h1v1h-1zM31 24h1v1h-1zM36 24h1v1h-1zM3 25h1v1h-1zM4 25h1v1h-1zM5 25h1v1h-1zM6 25h1v1h-1zM9 25h1v1h-1zM10 25h1v1h-1zM11 25h1v1h-1zM12 25h1v1h-1zM13 25h1v1h-1zM14 25h1v1h-1zM15 25h1v1h-1zM16 25h1v1h-1zM19 25h1v1h-1zM21 25h1v1h-1zM22 25h1v1h-1zM24 25h1v1h-1zM28 25h1v1h-1zM30 25h1v1h-1zM33 25h1v1h-1zM36 25h1v1h-1zM2 26h1v1h-1zM4 26h1v1h-1zM5 26h1v1h-1zM7 26h1v1h-1zM8 26h1v1h-1zM10 26h1v1h-1zM11 26h1v1h-1zM12 26h1v1h-1zM13 26h1v1h-1zM17 26h1v1h-1zM20 26h1v1h-1zM25 26h1v1h-1zM27 26h1v1h-1zM28 26h1v1h-1zM29 26h1v1h-1zM32 26h1v1h-1zM33 26h1v1h-1zM34 26h1v1h-1zM36 26h1v1h-1zM2 27h1v1h-1zM3 27h1v1h-1zM4 27h1v1h-1zM5 27h1v1h-1zM6 27h1v1h-1zM7 27h1v1h-1zM11 27h1v1h-1zM12 27h1v1h-1zM16 27h1v1h-1zM19 27h1v1h-1zM20 27h1v1h-1zM22 27h1v1h-1zM23 27h1v1h-1zM24 27h1v1h-1zM26 27h1v1h-1zM27 27h1v1h-1zM30 27h1v1h-1zM31 27h1v1h-1zM32 27h1v1h-1zM33 27h1v1h-1zM34 27h1v1h-1zM35 27h1v1h-1zM8 28h1v1h-1zM10 28h1v1h-1zM12 28h1v1h-1zM13 28h1v1h-1zM16 28h1v1h-1zM18 28h1v1h-1zM19 28h1v1h-1zM23 28h1v1h-1zM24 28h1v1h-1zM25 28h1v1h-1zM26 28h1v1h-1zM30 28h1v1h-1zM31 28h1v1h-1zM33 28h1v1h-1zM34 28h1v1h-1zM36 28h1v1h-1zM4 29h1v1h-1zM10 29h1v1h-1zM11 29h1v1h-1zM13 29h1v1h-1zM15 29h1v1h-1zM17 29h1v1h-1zM22 29h1v1h-1zM25 29h1v1h-1zM32 29h1v1h-1zM36 29h1v1h-1zM2 30h1v1h-1zM3 30h1v1h-1zM6 30h1v1h-1zM7 30h1v1h-1zM8 30h1v1h-1zM13 30h1v1h-1zM14 30h1v1h-1zM15 30h1v1h-1zM18 30h1v1h-1zM21 30h1v1h-1zM23 30h1v1h-1zM24 30h1v1h-1zM26 30h1v1h-1zM29 30h1v1h-1zM30 30h1v1h-1zM31 30h1v1h-1zM32 30h1v1h-1zM33 30h1v1h-1zM34 30h1v1h-1zM35 30h1v1h-1zM36 30h1v1h-1zM38 30h1v1h-1zM10 31h1v1h-1zM13 31h1v1h-1zM16 31h1v1h-1zM17 31h1v1h-1zM18 31h1v1h-1zM22 31h1v1h-1zM24 31h1v1h-1zM25 31h1v1h-1zM27 31h1v1h-1zM28 31h1v1h-1zM30 31h1v1h-1zM34 31h1v1h-1zM35 31h1v1h-1zM37 31h1v1h-1zM2 32h1v1h-1zM3 32h1v1h-1zM4 32h1v1h-1zM5 32h1v1h-1zM6 32h1v1h-1zM7 32h1v1h-1zM8 32h1v1h-1zM10 32h1v1h-1zM12 32h1v1h-1zM14 32h1v1h-1zM16 32h1v1h-1zM18 32h1v1h-1zM20 32h1v1h-1zM22 32h1v1h-1zM24 32h1v1h-1zM25 32h1v1h-1zM26 32h1v1h-1zM27 32h1v1h-1zM30 32h1v1h-1zM32 32h1v1h-1zM34 32h1v1h-1zM35 32h1v1h-1zM36 32h1v1h-1zM2 33h1v1h-1zM8 33h1v1h-1zM10 33h1v1h-1zM15 33h1v1h-1zM18 33h1v1h-1zM19 33h1v1h-1zM20 33h1v1h-1zM25 33h1v1h-1zM28 33h1v1h-1zM29 33h1v1h-1zM30 33h1v1h-1zM34 33h1v1h-1zM36 33h1v1h-1zM2 34h1v1h-1zM4 34h1v1h-1zM5 34h1v1h-1zM6 34h1v1h-1zM8 34h1v1h-1zM10 34h1v1h-1zM11 34h1v1h-1zM13 34h1v1h-1zM14 34h1v1h-1zM16 34h1v1h-1zM17 34h1v1h-1zM19 34h1v1h-1zM23 34h1v1h-1zM24 34h1v1h-1zM26 34h1v1h-1zM30 34h1v1h-1zM31 34h1v1h-1zM32 34h1v1h-1zM33 34h1v1h-1zM34 34h1v1h-1zM35 34h1v1h-1zM36 34h1v1h-1zM37 34h1v1h-1zM38 34h1v1h-1zM2 35h1v1h-1zM4 35h1v1h-1zM5 35h1v1h-1zM6 35h1v1h-1zM8 35h1v1h-1zM12 35h1v1h-1zM16 35h1v1h-1zM17 35h1v1h-1zM18 35h1v1h-1zM20 35h1v1h-1zM22 35h1v1h-1zM23 35h1v1h-1zM24 35h1v1h-1zM27 35h1v1h-1zM28 35h1v1h-1zM30 35h1v1h-1zM32 35h1v1h-1zM33 35h1v1h-1zM35 35h1v1h-1zM2 36h1v1h-1zM4 36h1v1h-1zM5 36h1v1h-1zM6 36h1v1h-1zM8 36h1v1h-1zM12 36h1v1h-1zM13 36h1v1h-1zM14 36h1v1h-1zM15 36h1v1h-1zM22 36h1v1h-1zM24 36h1v1h-1zM27 36h1v1h-1zM29 36h1v1h-1zM30 36h1v1h-1zM32 36h1v1h-1zM35 36h1v1h-1zM36 36h1v1h-1zM37 36h1v1h-1zM2 37h1v1h-1zM8 37h1v1h-1zM11 37h1v1h-1zM12 37h1v1h-1zM13 37h1v1h-1zM15 37h1v1h-1zM16 37h1v1h-1zM17 37h1v1h-1zM18 37h1v1h-1zM23 37h1v1h-1zM24 37h1v1h-1zM26 37h1v1h-1zM29 37h1v1h-1zM31 37h1v1h-1zM32 37h1v1h-1zM33 37h1v1h-1zM36 37h1v1h-1zM37 37h1v1h-1zM2 38h1v1h-1zM3 38h1v1h-1zM4 38h1v1h-1zM5 38h1v1h-1zM6 38h1v1h-1zM7 38h1v1h-1zM8 38h1v1h-1zM11 38h1v1h-1zM12 38h1v1h-1zM16 38h1v1h-1zM18 38h1v1h-1zM19 38h1v1h-1zM21 38h1v1h-1zM22 38h1v1h-1zM23 38h1v1h-1zM24 38h1v1h-1zM25 38h1v1h-1zM26 38h1v1h-1zM29 38h1v1h-1zM36 38h1v1h-1zM37 38h1v1h-1zM38 38h1v1h-1z" fill="#17497f"/>
</svg>
